<svg xmlns="http://www.w3.org/2000/svg" width="64" height="64" viewBox="0 0 64 64" fill="none">
  <defs>
    <linearGradient id="labBlue" x1="14" y1="10" x2="45" y2="54" gradientUnits="userSpaceOnUse">
      <stop offset="0" stop-color="#74d3e8" />
      <stop offset="0.52" stop-color="#1684c7" />
      <stop offset="1" stop-color="#17306d" />
    </linearGradient>
    <linearGradient id="labArrow" x1="22" y1="40" x2="54" y2="18" gradientUnits="userSpaceOnUse">
      <stop offset="0" stop-color="#0c5fa8" />
      <stop offset="0.58" stop-color="#2aa9d6" />
      <stop offset="1" stop-color="#79c35b" />
    </linearGradient>
  </defs>
  <circle cx="28" cy="37" r="18" fill="url(#labBlue)" />
  <path
    d="M24 11h16c1.7 0 3 1.3 3 3s-1.3 3-3 3h-1v14.5c0 9.4-7.6 17-17 17s-17-7.6-17-17V17h-1c-1.7 0-3-1.3-3-3s1.3-3 3-3h16z"
    fill="#1b2d6b"
    opacity="0.18"
  />
  <path
    d="M25 12h14c1.66 0 3 1.34 3 3s-1.34 3-3 3h-1v14c0 9.39-7.61 17-17 17S4 41.39 4 32V18H3c-1.66 0-3-1.34-3-3s1.34-3 3-3h14v6H25v-6z"
    fill="#14306d"
  />
  <path
    d="M12 18h18v14c0 5.52-4.48 10-10 10s-10-4.48-10-10V18z"
    fill="url(#labBlue)"
  />
  <path
    d="M18 20c-2.76 0-5 2.24-5 5v7c0 3.87 3.13 7 7 7"
    stroke="#ffffff"
    stroke-linecap="round"
    stroke-opacity="0.65"
    stroke-width="2.5"
  />
  <path
    d="M17 43l10-10l6 6l17-17"
    stroke="#ffffff"
    stroke-linecap="round"
    stroke-linejoin="round"
    stroke-width="8"
  />
  <path
    d="M17 43l10-10l6 6l17-17"
    stroke="url(#labArrow)"
    stroke-linecap="round"
    stroke-linejoin="round"
    stroke-width="4.5"
  />
  <path d="M46 17h5v11h-5z" fill="#f5aa34" />
  <path d="M39 30h4v10h-4z" fill="#f5aa34" />
  <circle cx="47.5" cy="14.5" r="2.5" fill="#f5aa34" />
  <circle cx="10" cy="29" r="3" fill="#14306d" />
  <circle cx="6" cy="45" r="2.5" fill="#14306d" />
  <circle cx="44" cy="46" r="2.5" fill="#7cc45c" />
  <path d="M10 29h8l5-6" stroke="#1d7bbb" stroke-linecap="round" stroke-width="3" />
  <path d="M44 46l8-8" stroke="#1d7bbb" stroke-linecap="round" stroke-width="3" />
</svg>
